<svg width="123" height="165" viewBox="0 0 123 165" fill="none" xmlns="http://www.w3.org/2000/svg">
<path d="M102.744 127.193C98.8287 129.163 94.0439 130.469 89.9001 130.469C81.6353 130.469 75.9805 125.453 75.9805 115.238V72.2018V46H49.6524H49.6295H15.5403H10C10 46.0229 10 46.0458 10 46.0916C10 52.184 12.0834 57.7725 15.5632 62.2158C16.2272 63.0632 16.9369 63.8878 17.7153 64.6436C22.0422 68.9495 27.9031 71.7437 34.3821 72.1789C34.5195 72.1789 34.634 72.2018 34.7713 72.2247H37.5415H49.6295V72.2018H49.6524V115.238C49.6524 142.012 64.8769 155.296 88.1601 154.426C96.2188 154.22 102.515 152.891 110.138 149.845L102.744 127.193Z" fill="#1C2745"/>
<path d="M113.243 44.03C108.775 39.4414 102.722 36.4637 96.0315 36H87V44.5425V52.9386V56.6241V56.6485V65.069V65.1911V65.2643V71C87.0236 71 87.0473 71 87.0946 71C93.2653 71 98.9396 68.8522 103.479 65.2643C103.503 65.2399 103.526 65.2155 103.55 65.1911C103.597 65.1422 103.668 65.1178 103.715 65.069C104.59 64.3612 105.441 63.6046 106.222 62.7748C107.971 60.9686 109.461 58.894 110.666 56.6485C112.558 53.1583 113.74 49.2043 114 45.0063V44.9086C113.764 44.5914 113.504 44.2985 113.243 44.03Z" fill="#DD112D"/>
<path d="M112.952 36.2476V36.1789V10H86.7839H40.1259H39.9427H34.5626C34.5626 10.0229 34.5626 10.0458 34.5626 10.0916C34.5626 16.0695 36.5773 21.5663 39.9427 25.9638C40.0114 26.0555 40.0572 26.1242 40.1259 26.2158C40.7898 27.0632 41.4995 27.8878 42.2779 28.6436C46.6049 32.9495 52.4657 35.7437 58.9447 36.1789H86.7839V36.2476V36.2705H95.5294C102.008 36.7057 107.869 39.4999 112.196 43.8058C112.448 44.0577 112.7 44.3326 112.952 44.6074V36.2476Z" fill="#FF2D4E"/>
<path d="M117.995 45.7206L118 45.6103V45.5V11C118 7.68631 115.314 5 112 5H36.11C32.5017 5 29.7074 8.17563 30.172 11.7577C31.7675 24.0602 37.5176 31.8323 44.4874 36.2651C51.1269 40.4879 58.4876 41.444 63.55 41H82.1656V67.9589C82.1656 71.3936 85.07 74.1671 88.5511 73.9323C99.476 73.1954 106.892 68.4865 111.541 62.6035C116.057 56.8903 117.793 50.3033 117.995 45.7206Z" stroke="white" stroke-width="10"/>
<path d="M11.6268 65.2987L11.6273 65.2994C12.3772 66.2565 13.2312 67.2562 14.2097 68.209C19.3572 73.3214 26.3207 76.6405 34.014 77.1654C34.2906 77.2046 34.5713 77.2247 34.8541 77.2247H37.5415H44.6524V115.238C44.6524 129.552 48.7383 141.019 56.6817 148.776C64.6226 156.53 75.7125 159.889 88.3173 159.423C96.6329 159.208 103.313 157.856 111.071 154.851C114.067 153.691 115.58 150.402 114.601 147.402L107.858 126.748C106.702 123.209 102.775 121.709 99.6213 123.146C96.433 124.599 92.8266 125.469 89.9001 125.469C86.7812 125.469 84.7267 124.544 83.4358 123.209C82.1307 121.859 80.9805 119.441 80.9805 115.238V72.2018V47C80.9805 43.6863 78.2942 41 74.9805 41H49.6524H49.6295H15.5403H10.0916C7.27959 41 5 43.2796 5 46.0916C5 53.3464 7.48593 60.0114 11.6268 65.2987ZM33.8569 77.141C33.8608 77.1417 33.8647 77.1423 33.8685 77.143C33.842 77.139 33.8362 77.1375 33.8569 77.141Z" stroke="white" stroke-width="10"/>
</svg>
