<svg width="36" height="36" viewBox="0 0 36 36" fill="none" xmlns="http://www.w3.org/2000/svg">
<path d="M25.144 28.1442C24.3582 28.5352 23.3977 28.7943 22.5659 28.7943C20.9069 28.7943 19.7719 27.7986 19.7719 25.7709V17.228V12.0269H14.487H14.4824H7.63976H6.52765C6.52765 12.0314 6.52765 12.0359 6.52765 12.045C6.52765 13.2544 6.94584 14.3638 7.64435 15.2458C7.77762 15.414 7.92008 15.5777 8.07633 15.7277C8.94488 16.5824 10.1213 17.1371 11.4218 17.2235C11.4494 17.2235 11.4724 17.228 11.5 17.2326H12.056H14.4824V17.228H14.487V25.7709C14.487 31.0857 17.543 33.7227 22.2167 33.5499C23.8343 33.509 25.098 33.2453 26.6283 32.6406L25.144 28.1442Z" fill="black"/>
<path d="M28.8528 9.60847C27.9843 8.75373 26.8078 8.19905 25.5073 8.11267H23.7518V9.70394V11.2679V11.9545V11.959V13.5275V13.5503V13.5639V14.6323C23.7564 14.6323 23.761 14.6323 23.7702 14.6323C24.9696 14.6323 26.0726 14.2322 26.9549 13.5639C26.9595 13.5594 26.9641 13.5548 26.9687 13.5503C26.9779 13.5412 26.9917 13.5366 27.0008 13.5275C27.1709 13.3957 27.3363 13.2547 27.488 13.1002C27.828 12.7637 28.1175 12.3773 28.3519 11.959C28.7196 11.3089 28.9493 10.5723 28.9999 9.79033V9.77214C28.9539 9.71303 28.9034 9.65848 28.8528 9.60847Z" fill="#DD112D"/>
<path d="M28.9999 8.10847V8.09483V2.89819H23.7472H14.3816H14.3448H13.2649C13.2649 2.90274 13.2649 2.90729 13.2649 2.91638C13.2649 4.10301 13.6693 5.19417 14.3448 6.0671C14.3586 6.08528 14.3678 6.09892 14.3816 6.11711C14.5149 6.28533 14.6573 6.449 14.8136 6.59904C15.6821 7.45377 16.8586 8.00844 18.1591 8.09483H23.7472V8.10847V8.11301H25.5027C26.8032 8.1994 27.9797 8.75407 28.8482 9.60881C28.8988 9.65882 28.9493 9.71338 28.9999 9.76794V8.10847Z" fill="#FF2D4E"/>
</svg>
